<?xml version="1.0" standalone="no"?>
<!DOCTYPE svg PUBLIC "-//W3C//DTD SVG 20010904//EN"
 "http://www.w3.org/TR/2001/REC-SVG-20010904/DTD/svg10.dtd">
<svg version="1.0" xmlns="http://www.w3.org/2000/svg"
 width="5000.000000pt" height="4000.000000pt" viewBox="0 0 5000.000000 4000.000000"
 preserveAspectRatio="xMidYMid meet">

<g transform="translate(0.000000,4000.000000) scale(0.100000,-0.100000)"
fill="#000000" stroke="none">
<path d="M27131 28529 c-92 -85 -220 -139 -416 -175 -82 -15 -151 -19 -390
-18 -315 0 -339 1 -995 74 -757 84 -975 89 -1203 31 -355 -90 -606 -309 -707
-614 -20 -62 -31 -77 -101 -144 -172 -164 -277 -353 -332 -598 -19 -87 -22
-127 -21 -310 0 -185 4 -226 27 -345 27 -135 70 -288 123 -433 l28 -77 -27
-28 c-14 -15 -43 -63 -64 -107 l-38 -80 1 -130 c0 -214 48 -375 298 -1011 199
-508 268 -714 317 -944 29 -135 32 -414 6 -525 -78 -340 -283 -586 -587 -707
-153 -60 -314 -74 -454 -38 -104 26 -226 85 -458 221 -308 180 -461 265 -643
354 -437 214 -652 278 -930 279 -77 0 -167 -6 -200 -13 -207 -43 -365 -129
-493 -265 l-61 -66 116 -178 c64 -97 159 -242 211 -322 52 -80 129 -197 170
-260 42 -63 134 -205 207 -315 72 -110 134 -207 139 -215 17 -34 -430 448
-960 1035 -149 165 -302 329 -340 364 -177 162 -423 284 -691 342 -125 26
-453 37 -600 20 -248 -30 -515 -118 -644 -212 -26 -19 -67 -61 -91 -94 -73
-100 -192 -187 -385 -284 -96 -47 -264 -121 -278 -121 -4 0 7 11 23 25 50 42
138 156 196 254 139 235 238 557 315 1026 32 198 60 418 121 985 45 412 77
16 121 789 32 123 91 260 138 319 67 86 293 218 441 258 91 25 315 26 428 1
100 -21 270 -74 482 -150 289 -103 518 -140 855 -141 364 0 555 49 612 157 25
47 29 231 9 392 -48 399 -196 904 -353 1207 -96 186 -271 283 -607 335 -136
21 -551 24 -756 4 -406 -38 -1010 -131 -1148 -177 -137 -45 -241 -112 -335
-214 -57 -61 -174 -231 -237 -345 -65 -117 -184 -311 -241 -395 -214 -314
-501 -595 -856 -838 -237 -162 -365 -271 -521 -442 -259 -285 -482 -623 -705
-1070 -286 -571 -500 -1164 -691 -1910 -142 -557 -150 -627 -82 -766 32 -64
59 -99 145 -185 191 -191 354 -299 1121 -744 780 -452 1058 -627 1570 -986
537 -376 1012 -612 1535 -763 353 -101 628 -145 966 -153 129 -3 270 -2 312 1
l77 8 0 386 1 387 50 -195 c192 -754 487 -1698 679 -2180 234 -586 649 -1233
1151 -1795 59 -66 127 -140 152 -164 l46 -44 44 69 c202 312 387 776 601 1499
34 115 5 -80 -56 -380 -67 -333 -247 -1010 -393 -1480 -200 -647 -506 -1533
-748 -2170 -36 -93 -64 -172 -62 -174 2 -2 93 -16 203 -32 740 -107 1563 -358
2437 -744 361 -159 802 -382 1133 -571 l162 -93 163 93 c330 189 771 412 1132
571 874 386 1697 637 2437 744 110 16 201 30 203 32 2 2 -26 81 -62 174 -573
1505 -1041 3044 -1192 3919 -24 137 -26 183 -5 111 214 -723 399 -1187 601
-1499 l44 -69 46 44 c25 24 93 98 152 164 434 486 831 1078 1056 1575 215 473
539 1478 774 2400 l50 195 1 -387 0 -386 77 -8 c148 -13 533 2 713 30 482 72
891 203 1349 432 260 129 465 253 751 453 516 362 789 533 1570 986 767 445
930 553 1121 744 86 86 113 121 145 185 68 138 59 217 -82 766 -193 752 -406
1340 -691 1910 -223 447 -446 785 -705 1070 -156 171 -284 280 -521 442 -355
243 -642 524 -856 838 -57 83 -174 276 -241 395 -120 214 -243 371 -354 450
-129 90 -220 121 -501 169 -581 98 -885 130 -1255 130 -358 0 -542 -30 -726
-119 -125 -60 -190 -121 -247 -233 -157 -303 -305 -808 -353 -1207 -20 -161
-16 -345 9 -392 57 -108 248 -157 612 -157 337 1 566 38 855 141 212 76 382
129 482 150 113 25 337 24 428 -1 148 -40 380 -177 444 -261 46 -60 104 -196
135 -316 44 -173 76 -377 121 -789 61 -567 89 -787 121 -985 77 -469 176 -791
315 -1026 58 -98 146 -212 196 -254 16 -14 27 -25 23 -25 -14 0 -182 74 -278
121 -193 97 -312 184 -385 284 -24 33 -65 75 -91 94 -129 94 -396 182 -644
212 -147 17 -475 6 -600 -20 -268 -58 -514 -180 -691 -342 -38 -35 -191 -199
-340 -364 -530 -587 -977 -1069 -960 -1035 5 8 67 105 139 215 73 110 165 252
207 315 41 63 118 180 170 260 52 80 147 225 211 322 l116 178 -61 66 c-128
136 -286 222 -493 265 -97 21 -322 16 -451 -9 -304 -60 -667 -228 -1322 -611
-358 -209 -465 -247 -665 -238 l-118 5 -86 54 c-102 62 -298 250 -362 345
-128 192 -178 357 -168 556 18 369 228 886 485 1193 79 94 113 146 165 250
117 233 189 536 189 794 1 149 -11 202 -63 276 -46 67 -118 89 -193 58 -17 -6
-18 -4 -13 17 132 490 133 1013 2 1389 -60 171 -122 285 -231 421 l-52 66 41
18 c142 63 277 314 367 679 17 66 29 121 27 122 -1 1 -26 -20 -56 -47z"/>
</g>
</svg>
