<?xml version="1.0" standalone="no"?>
<!DOCTYPE svg PUBLIC "-//W3C//DTD SVG 20010904//EN"
 "http://www.w3.org/TR/2001/REC-SVG-20010904/DTD/svg10.dtd">
<svg version="1.0" xmlns="http://www.w3.org/2000/svg"
 width="4500.000000pt" height="4500.000000pt" viewBox="0 0 4500.000000 4500.000000"
 preserveAspectRatio="xMidYMid meet">

<g transform="translate(0.000000,4500.000000) scale(0.100000,-0.100000)"
fill="#000000" stroke="none">
<path d="M22145 42129 c-304 -25 -518 -74 -734 -166 -445 -190 -827 -509
-1084 -904 -195 -299 -360 -748 -461 -1249 -25 -126 -43 -257 -71 -535 -8 -82
-17 -172 -20 -200 -16 -151 -35 -420 -35 -486 l0 -76 -40 10 c-75 20 -143 -36
-174 -144 -12 -41 -17 -107 -19 -255 -2 -219 -3 -214 74 -452 74 -231 80 -263
89 -542 13 -388 44 -476 221 -625 28 -23 42 -48 63 -110 48 -145 57 -216 61
-440 4 -243 -11 -378 -90 -830 -32 -185 -47 -297 -46 -355 0 -47 -5 -103 -10
-126 l-11 -41 -90 -7 c-285 -20 -650 -100 -953 -208 -415 -149 -784 -353
-1262 -700 -402 -291 -857 -753 -1225 -1243 -50 -66 -92 -121 -93 -123 -1 -1
-47 -13 -101 -27 -55 -13 -126 -33 -159 -45 -81 -30 -649 -310 -755 -372 -354
-209 -706 -533 -893 -824 -321 -498 -516 -1251 -526 -2034 -2 -111 -3 -117
-37 -179 -52 -95 -137 -218 -307 -449 -268 -361 -314 -443 -417 -749 -94 -283
-158 -550 -240 -1008 -5 -27 -31 -171 -59 -320 -114 -620 -154 -1042 -146
-1550 4 -216 9 -303 29 -434 l24 -164 -25 -111 c-40 -176 -89 -335 -174 -564
-213 -571 -293 -1021 -292 -1642 0 -249 6 -371 29 -625 11 -121 57 -376 114
-635 127 -570 136 -653 124 -1185 -28 -1239 21 -1687 257 -2340 28 -77 133
-342 234 -590 101 -247 204 -502 230 -565 43 -107 63 -173 164 -542 87 -316
111 -478 106 -703 -7 -274 -26 -403 -153 -1035 -27 -135 -69 -344 -92 -466
l-42 -221 -205 -42 c-113 -24 -209 -39 -213 -34 -4 4 -38 114 -75 243 -448
1568 -1016 3101 -1536 4150 -344 694 -626 1134 -914 1426 -218 220 -395 314
-570 301 -42 -3 -234 -47 -475 -110 -223 -57 -673 -173 -1000 -256 -364 -93
-620 -164 -658 -182 -113 -52 -219 -181 -292 -359 -67 -161 -127 -429 -150
-665 -6 -66 -13 -129 -15 -140 -3 -16 -22 -25 -97 -44 -51 -13 -178 -45 -283
-72 -104 -27 -340 -87 -524 -134 -218 -56 -355 -97 -395 -117 -78 -39 -196
-158 -254 -256 -107 -183 -188 -446 -237 -769 -20 -133 -45 -399 -45 -477 0
-34 -4 -67 -8 -74 -5 -6 -255 -75 -558 -153 -636 -163 -642 -166 -769 -294
-128 -129 -216 -297 -290 -556 -101 -351 -138 -727 -133 -1348 l3 -405 -370
-101 c-397 -108 -441 -125 -532 -209 -178 -162 -294 -452 -350 -876 -19 -147
-25 -652 -10 -865 62 -883 344 -1910 742 -2706 210 -419 423 -728 661 -960
231 -224 428 -324 634 -322 88 1 121 8 455 101 329 91 361 99 373 83 7 -9 45
-72 84 -141 146 -261 305 -500 468 -707 110 -140 322 -353 429 -432 103 -76
262 -155 356 -177 122 -28 179 -18 738 125 280 72 514 131 520 130 7 0 61 -82
120 -182 380 -639 766 -1034 1095 -1118 123 -31 160 -27 499 60 169 43 465
119 657 167 l348 89 22 -29 c261 -360 520 -582 734 -632 93 -22 134 -16 467
69 1549 397 1835 472 1832 481 -2 6 16 26 40 45 196 153 321 530 374 1126 23
255 16 1033 -11 1395 -6 69 -12 159 -16 200 -8 120 -54 574 -70 705 -8 66 -17
143 -20 170 -17 156 -112 796 -160 1080 -88 526 -234 1270 -343 1751 -16 71
-28 130 -27 131 1 1 36 -15 77 -36 98 -52 217 -92 396 -137 131 -32 158 -36
233 -31 51 4 125 18 185 36 55 17 125 33 156 37 56 6 56 6 67 -24 14 -41 74
-105 125 -135 141 -83 294 -71 386 28 23 25 41 52 41 61 0 24 61 12 153 -30
155 -70 252 -86 327 -54 46 20 105 81 142 146 l30 53 47 -8 c25 -4 84 -8 131
-8 154 0 220 50 353 265 39 63 103 160 143 215 107 150 181 266 215 339 17 36
34 66 38 66 7 0 313 40 421 55 49 7 356 45 410 51 25 2 61 7 80 9 81 10 126
16 350 40 129 13 305 32 390 40 85 8 175 17 200 20 568 59 1670 130 2480 160
85 3 205 8 265 10 61 2 254 7 430 10 176 4 370 8 430 10 130 5 2702 5 2855 0
58 -2 290 -6 515 -9 226 -4 444 -9 485 -11 41 -2 176 -7 300 -10 124 -3 259
-8 300 -10 41 -2 136 -7 210 -10 194 -8 620 -32 705 -40 28 -2 88 -7 135 -10
186 -12 281 -23 720 -81 184 -25 372 -50 417 -56 l83 -11 24 -54 c28 -61 92
-160 222 -345 49 -70 114 -168 144 -218 112 -185 189 -243 329 -244 42 -1 101
2 133 6 l56 8 31 -54 c101 -180 221 -203 468 -90 92 42 153 54 153 30 0 -32
79 -104 138 -127 140 -52 348 31 408 163 l18 40 58 -6 c32 -4 102 -21 156 -37
60 -19 130 -32 182 -36 75 -5 102 -1 234 32 218 54 367 109 449 167 15 11 27
17 27 14 0 -3 -25 -117 -55 -252 -129 -575 -304 -1499 -375 -1979 -44 -296
-101 -714 -115 -830 -8 -77 -17 -153 -20 -170 -26 -182 -78 -817 -95 -1170 -9
-196 -7 -919 3 -975 3 -14 8 -65 12 -115 17 -241 83 -575 147 -734 63 -160
140 -277 226 -345 21 -17 37 -36 35 -42 -2 -6 98 -36 244 -73 137 -35 615
-158 1063 -273 448 -115 836 -212 862 -215 110 -13 272 48 414 155 105 79 268
250 379 396 48 64 95 116 104 116 9 0 297 -73 641 -161 349 -90 654 -163 691
-166 137 -11 315 55 479 178 238 178 524 530 777 956 59 100 114 182 121 182
8 1 242 -58 520 -131 489 -127 511 -131 612 -132 123 -1 194 19 327 89 123 65
223 144 368 290 239 240 465 555 706 983 52 93 69 116 85 114 10 -2 175 -46
365 -98 191 -52 375 -96 409 -99 133 -9 291 42 452 147 125 83 343 301 469
471 567 764 1010 2022 1135 3227 19 186 28 740 14 885 -48 488 -167 821 -356
995 -99 91 -137 106 -538 215 l-369 101 -2 499 c-1 275 -5 523 -9 550 -4 28
-11 95 -17 150 -33 326 -120 667 -222 870 -79 159 -213 306 -329 363 -39 18
-171 58 -343 102 -522 133 -820 211 -824 216 -3 2 -8 62 -13 132 -44 691 -188
1155 -424 1371 -107 98 -70 86 -1059 337 -187 48 -341 88 -343 90 -2 1 -12 76
-22 166 -66 570 -215 911 -445 1019 -33 15 -230 71 -440 125 -421 107 -727
185 -1282 328 -401 104 -450 111 -554 80 -383 -114 -820 -670 -1323 -1684
-128 -258 -155 -315 -259 -545 -432 -963 -921 -2338 -1292 -3635 -37 -129 -71
-239 -75 -244 -5 -4 -100 11 -213 34 l-205 43 -42 221 c-60 311 -114 586 -149
759 -43 206 -63 383 -64 582 -1 240 27 381 163 825 38 124 91 304 119 400 27
96 91 294 141 440 368 1060 438 1297 509 1730 63 378 74 648 57 1340 -12 503
-2 597 119 1145 70 317 99 469 114 615 34 310 46 648 32 908 -28 540 -105 910
-296 1422 -40 107 -89 251 -109 320 -41 141 -86 347 -80 364 19 56 46 334 51
536 12 486 -32 954 -148 1590 -157 863 -224 1146 -343 1453 -84 216 -138 305
-406 667 -147 199 -248 348 -285 420 -20 41 -23 65 -29 245 -3 110 -8 223 -11
250 -19 193 -29 271 -55 431 -70 424 -208 840 -380 1142 -249 439 -658 804
-1195 1067 -332 163 -562 249 -800 298 l-110 23 -65 125 c-326 618 -1006 1213
-1925 1681 -486 247 -1063 442 -1432 483 -35 4 -63 8 -63 8 -1 1 -3 29 -6 62
-3 33 -9 69 -14 80 -9 22 -111 633 -136 820 -22 163 -27 493 -9 610 23 142 71
284 108 315 183 151 214 238 227 630 10 280 11 289 89 538 77 246 83 288 76
492 -7 197 -21 264 -65 314 -41 46 -82 62 -130 50 l-37 -10 -6 150 c-6 127
-33 460 -52 626 -3 25 -7 63 -10 85 -3 22 -7 69 -11 105 -30 339 -136 853
-239 1167 -164 497 -514 850 -1137 1147 -187 90 -545 231 -658 260 -104 26
-236 50 -375 66 -118 14 -533 20 -660 9z m605 -285 c538 -66 1065 -265 1435
-544 100 -75 268 -244 362 -362 245 -309 366 -619 433 -1111 21 -157 75 -672
87 -837 14 -185 8 -505 -10 -608 -10 -52 -15 -98 -12 -103 13 -19 65 -9 98 20
33 29 34 30 107 20 143 -18 209 -75 215 -186 4 -66 -15 -166 -74 -396 -48
-185 -68 -302 -76 -447 -13 -236 -24 -318 -56 -417 -55 -167 -231 -333 -355
-333 -55 0 -84 25 -120 102 -29 63 -29 64 -28 258 0 219 5 266 74 675 27 160
55 342 61 405 21 211 -6 439 -66 563 -27 55 -71 114 -79 106 -3 -2 5 -38 16
-79 18 -64 22 -102 22 -255 0 -169 -2 -188 -32 -307 -17 -70 -56 -209 -86
-310 -100 -334 -120 -436 -119 -618 1 -94 7 -157 27 -255 25 -118 27 -143 21
-275 -7 -178 -28 -349 -55 -455 -27 -108 -89 -230 -142 -282 -39 -37 -117 -87
-125 -79 -2 1 2 40 8 87 11 83 7 383 -7 479 -3 25 -19 142 -34 260 l-28 215
-3 -90 c-2 -49 -4 -107 -5 -127 -18 -423 -92 -643 -291 -873 -58 -66 -86 -89
-164 -132 -517 -287 -1157 -391 -1727 -282 -132 26 -313 78 -422 123 -348 142
-344 140 -436 239 -193 207 -311 637 -317 1157 0 79 -3 104 -8 80 -9 -39 -55
-345 -69 -456 -29 -226 -32 -561 -7 -679 9 -38 14 -72 11 -74 -10 -11 -198
194 -248 271 -96 148 -157 305 -157 405 0 69 22 208 51 323 90 357 86 561 -16
905 -154 523 -170 601 -161 800 4 72 13 155 22 185 17 62 19 88 4 50 -66 -164
-85 -596 -44 -995 54 -526 57 -563 53 -735 -5 -172 -5 -176 -36 -237 -17 -34
-42 -69 -54 -77 -100 -71 -329 93 -407 291 -32 82 -49 188 -61 378 -13 217
-26 301 -91 557 -60 242 -73 322 -59 385 21 93 80 136 210 152 73 10 74 9 107
-20 48 -42 120 -39 104 5 -26 66 -44 231 -44 391 1 277 72 936 137 1259 108
536 304 920 627 1231 237 229 536 401 904 524 189 63 454 126 583 140 120 13
425 10 552 -5z m2073 -5355 c10 -7 13 -65 17 -314 8 -502 65 -1058 160 -1550
16 -82 50 -283 75 -445 103 -652 182 -951 321 -1209 44 -80 113 -191 120 -191
2 0 -6 24 -17 53 -119 297 -183 569 -238 1007 -21 165 -51 443 -51 469 0 17
71 11 258 -20 714 -119 1449 -480 2132 -1049 166 -138 473 -445 546 -545 32
-44 83 -109 112 -144 98 -115 225 -332 261 -443 14 -44 21 -46 47 -17 10 12
38 30 61 41 81 36 195 2 486 -143 187 -94 267 -139 392 -222 571 -381 961
-867 1219 -1521 143 -361 203 -729 200 -1236 -3 -481 -82 -913 -241 -1320
-104 -265 -304 -607 -440 -751 -99 -105 -168 -140 -274 -140 -110 0 -214 57
-452 249 -76 62 -183 144 -238 183 -198 140 -377 290 -625 525 -165 156 -254
256 -468 529 -164 209 -326 399 -333 391 -7 -7 54 -210 129 -426 105 -304 235
-710 268 -836 34 -130 50 -246 50 -359 0 -81 0 -81 -73 -225 -40 -80 -83 -168
-94 -197 -23 -56 -50 -80 -228 -207 -233 -165 -586 -356 -866 -469 -188 -76
-447 -159 -614 -196 -77 -18 -144 -34 -150 -36 -22 -10 353 6 488 21 268 29
560 93 981 213 116 33 211 59 213 57 3 -3 -23 -207 -32 -252 -4 -16 -23 -28
-77 -47 -346 -125 -840 -210 -1433 -246 -203 -13 -749 -5 -975 14 -902 75
-1613 290 -2060 623 -161 120 -200 160 -243 252 -126 272 -270 700 -301 900
-45 286 -55 749 -24 1135 10 116 20 260 23 320 14 261 20 344 41 535 47 416
115 627 323 1000 35 63 105 201 156 306 123 255 188 354 324 498 l56 58 -41
-20 c-173 -87 -466 -378 -722 -717 -100 -133 -331 -476 -402 -596 l-33 -57
-212 317 c-117 174 -246 370 -288 436 -130 205 -353 444 -514 551 -53 35 -183
104 -197 104 -3 0 33 -46 80 -102 202 -242 532 -800 608 -1028 30 -90 82 -348
126 -620 16 -104 38 -365 55 -650 8 -146 20 -326 27 -400 17 -177 17 -687 0
-860 -20 -201 -38 -296 -93 -477 -76 -253 -221 -628 -273 -708 -23 -35 -192
-173 -296 -241 -448 -292 -1136 -492 -1915 -554 -77 -6 -153 -13 -170 -16 -59
-9 -723 -12 -855 -3 -570 35 -999 105 -1357 220 -130 43 -153 53 -157 72 -10
53 -36 251 -33 254 2 1 82 -20 178 -47 624 -179 916 -232 1339 -245 192 -5
193 -7 -30 47 -490 117 -1031 367 -1465 676 -145 104 -177 133 -193 176 -9 23
-52 112 -95 199 l-80 157 6 128 c4 70 15 168 26 217 30 140 139 487 268 860
84 239 158 483 151 491 -10 9 -177 -191 -448 -537 -210 -269 -636 -664 -985
-914 -60 -43 -168 -126 -239 -183 -233 -188 -335 -243 -454 -243 -145 0 -268
106 -448 388 -267 417 -426 909 -485 1498 -13 132 -16 543 -5 670 34 388 88
627 208 929 297 744 819 1311 1547 1680 229 116 336 160 424 175 60 10 72 10
110 -7 23 -11 51 -29 61 -41 11 -11 22 -21 26 -21 4 0 15 21 25 48 60 157 177
344 307 492 46 52 100 120 120 150 41 62 279 299 438 436 397 343 883 651
1322 838 346 147 743 254 1047 282 l73 7 -6 -69 c-62 -653 -137 -1044 -265
-1373 -21 -55 -35 -98 -30 -96 15 10 110 175 154 269 121 259 188 528 280
1125 33 212 51 315 99 565 26 132 64 410 86 616 30 297 39 438 56 945 3 99 10
182 15 183 5 2 9 10 9 17 0 8 3 16 8 18 4 3 7 -86 7 -196 0 -221 9 -286 67
-467 55 -175 162 -368 284 -515 48 -58 55 -73 161 -390 168 -500 218 -618 436
-1038 290 -559 434 -886 515 -1168 31 -108 69 -284 75 -354 2 -22 4 -1 5 46 4
213 -50 572 -123 814 -70 232 -124 353 -336 755 -256 487 -349 890 -219 958
15 8 43 11 72 8 111 -12 271 -102 574 -324 498 -364 584 -405 850 -406 l141
-1 94 47 c119 60 218 134 449 338 281 247 371 309 446 310 69 0 89 -71 81
-279 -6 -161 -38 -352 -93 -571 -29 -114 -49 -162 -127 -320 -51 -102 -112
-233 -135 -293 -121 -308 -186 -633 -197 -974 l-5 -158 14 96 c55 379 180 689
649 1604 156 306 221 466 370 910 110 327 111 330 168 400 163 201 270 422
325 675 15 68 19 127 19 298 0 146 3 205 10 190 5 -13 13 -26 18 -29z m-11184
-8356 c-39 -138 -50 -237 -49 -428 2 -179 13 -273 41 -340 l12 -30 8 55 c12
83 51 199 144 424 47 112 85 209 85 215 0 6 3 11 8 11 4 0 22 -51 40 -113 80
-270 184 -484 462 -947 101 -168 203 -343 227 -390 131 -256 156 -518 102
-1075 -16 -165 -28 -307 -26 -315 3 -21 60 86 102 192 19 47 59 179 89 291 68
250 87 310 137 411 104 210 259 354 514 476 272 130 667 233 927 242 43 1 82
-2 87 -7 35 -39 209 -756 200 -823 -2 -9 0 -26 4 -37 19 -60 38 -306 40 -540
3 -248 -6 -390 -38 -635 -29 -217 -103 -535 -177 -754 -245 -736 -614 -1363
-952 -1618 -205 -155 -409 -201 -610 -138 -94 29 -138 74 -269 267 -96 143
-115 179 -191 363 -46 113 -96 230 -110 260 l-26 55 5 -110 c4 -116 32 -239
79 -355 14 -33 23 -68 20 -75 -2 -8 -6 -22 -9 -31 -4 -12 -24 0 -87 49 -46 35
-104 78 -130 96 -26 17 -105 78 -175 134 -133 106 -234 177 -252 177 -6 0 23
-33 66 -72 42 -40 213 -215 381 -388 l305 -315 79 -163 c376 -780 522 -1385
505 -2101 -11 -459 -56 -730 -256 -1527 -209 -831 -226 -976 -215 -1884 7
-541 0 -777 -25 -964 -10 -71 3 -62 58 38 74 134 131 339 146 516 3 41 8 91
10 110 2 19 7 123 10 230 9 298 21 424 67 670 63 348 286 1262 300 1236 24
-43 40 -246 35 -441 -6 -235 -18 -331 -97 -759 -107 -581 -114 -658 -114
-1231 -1 -679 27 -1037 114 -1465 56 -272 57 -270 52 82 -3 174 -2 332 2 352
l7 36 73 -98 c126 -167 319 -384 402 -454 210 -175 340 -360 516 -733 83 -178
134 -303 125 -311 -15 -15 -170 -44 -287 -54 -69 -6 -137 -12 -151 -15 -25 -4
-26 -1 -47 93 -17 74 -32 112 -62 157 -48 74 -173 209 -165 179 47 -178 106
-576 139 -954 9 -96 18 -197 21 -225 2 -27 9 -135 15 -240 6 -104 12 -223 15
-264 4 -78 -17 -281 -36 -338 -8 -26 -38 -54 -136 -128 -118 -87 -131 -95
-196 -106 -68 -12 -75 -12 -216 24 -171 43 -244 47 -328 16 -71 -27 -103 -47
-173 -115 -44 -42 -65 -54 -108 -63 -120 -25 -221 -4 -397 83 -201 99 -221 99
-330 -4 -78 -74 -111 -95 -168 -105 -53 -10 -85 1 -127 45 -60 62 -69 138 -70
558 -1 111 -5 202 -9 202 -11 0 -84 -188 -115 -296 -59 -206 -61 -391 -6 -493
l12 -24 -58 8 c-33 3 -77 16 -99 28 -35 20 -41 29 -52 77 -20 89 -17 281 6
380 45 190 52 299 50 735 -3 389 -2 417 20 535 12 69 42 186 65 260 24 74 53
178 65 230 118 529 131 622 138 965 7 351 -14 549 -88 850 -84 338 -175 597
-410 1161 -228 550 -361 1004 -438 1494 -38 247 -46 351 -46 615 1 282 27 474
88 650 l14 40 15 -30 c9 -17 71 -156 138 -310 200 -459 319 -686 458 -871 70
-93 219 -250 228 -241 6 5 -70 177 -189 427 -30 63 -116 246 -192 405 -310
653 -447 990 -560 1371 -154 522 -227 1060 -220 1639 4 392 30 564 135 873
161 479 240 806 270 1117 37 384 138 820 242 1044 59 129 195 327 213 309 12
-12 77 -297 120 -522 47 -252 97 -465 134 -566 l20 -55 2 355 c1 195 3 375 4
400 1 25 5 146 9 270 4 124 9 250 11 280 2 30 7 127 10 215 3 88 8 189 10 225
3 36 9 180 15 320 5 140 12 309 15 375 10 269 17 560 12 555 -2 -3 -8 -45 -11
-95 -15 -194 -55 -429 -157 -915 -33 -157 -73 -359 -88 -450 l-28 -165 -58
-30 c-215 -112 -350 -381 -414 -830 -11 -77 -21 -157 -23 -177 -1 -21 -5 -38
-8 -38 -14 0 -57 220 -74 378 -12 101 -6 437 9 593 35 369 95 691 239 1279 30
124 73 306 96 405 137 588 241 849 463 1163 32 45 59 82 61 82 2 0 -5 -30 -15
-67z m17813 -35 c222 -320 319 -573 462 -1198 25 -107 69 -296 100 -420 99
-409 167 -747 200 -1010 58 -454 46 -881 -32 -1145 l-9 -30 -6 25 c-3 14 -11
70 -17 125 -27 244 -93 488 -173 639 -52 100 -165 217 -251 261 l-59 30 -28
165 c-15 91 -59 317 -98 502 -89 427 -141 729 -141 827 0 20 -5 43 -10 51 -6
10 -8 -27 -5 -110 2 -69 7 -213 10 -320 3 -107 8 -235 10 -285 2 -49 7 -148
10 -220 3 -71 8 -177 11 -235 26 -526 36 -826 41 -1250 l6 -495 24 70 c40 117
79 287 132 565 28 146 62 311 77 365 15 55 29 110 31 123 3 13 11 21 17 19 21
-7 124 -150 169 -236 68 -129 113 -253 156 -423 39 -150 104 -510 116 -638 34
-351 97 -625 250 -1090 135 -409 157 -540 161 -960 4 -445 -41 -891 -132
-1297 -25 -115 -27 -120 -93 -208 -59 -78 -75 -108 -116 -225 -119 -338 -233
-599 -569 -1304 -196 -411 -289 -616 -282 -623 9 -9 159 149 228 242 141 188
259 414 458 870 148 339 150 343 160 324 16 -27 59 -214 75 -321 29 -202 29
-564 0 -783 -81 -600 -208 -1066 -441 -1620 -341 -813 -475 -1258 -515 -1705
-11 -126 -8 -581 5 -655 3 -16 12 -82 21 -145 9 -63 29 -173 45 -245 15 -71
40 -186 55 -254 14 -68 46 -185 71 -261 29 -91 53 -192 68 -292 23 -146 24
-172 20 -543 -4 -414 3 -515 46 -691 35 -139 25 -398 -17 -439 -27 -27 -70
-44 -127 -51 l-56 -7 22 49 c26 61 36 210 19 310 -22 129 -129 454 -149 454
-4 0 -8 -73 -9 -162 -4 -276 -15 -481 -28 -525 -16 -53 -72 -110 -118 -118
-67 -13 -129 17 -228 111 -78 74 -112 85 -192 59 -28 -9 -79 -32 -112 -50
-156 -86 -274 -114 -397 -95 -68 10 -74 13 -138 74 -89 84 -161 118 -262 124
-66 4 -99 -1 -227 -33 -145 -37 -152 -38 -219 -26 -64 11 -78 19 -188 102 -65
50 -124 97 -131 106 -12 16 -27 78 -38 163 -12 85 -12 206 1 400 7 107 15 242
19 300 3 58 8 116 10 130 2 14 6 59 10 100 31 353 90 754 141 955 7 29 -120
-108 -167 -180 -29 -45 -44 -84 -61 -155 l-21 -95 -96 7 c-200 17 -371 48
-371 70 0 31 147 354 233 513 132 243 240 381 410 522 84 71 284 296 403 455
l73 98 7 -46 c4 -26 5 -185 2 -353 l-5 -306 24 90 c99 384 143 828 148 1480 5
619 -3 729 -90 1215 -73 407 -92 562 -94 760 -2 161 7 269 31 380 l11 55 88
-350 c138 -554 205 -862 223 -1025 3 -30 13 -200 21 -377 20 -432 44 -583 125
-776 27 -65 87 -167 97 -167 6 0 -7 157 -15 185 -4 11 -7 358 -7 770 0 413 -4
809 -9 880 -10 172 -61 424 -186 921 -200 796 -247 1093 -247 1584 -1 449 56
809 198 1246 117 361 335 852 425 955 304 350 383 439 474 533 95 98 101 107
63 87 -24 -12 -88 -58 -145 -104 -56 -45 -150 -119 -209 -164 l-108 -82 -9 27
c-7 21 -2 45 21 107 46 128 67 222 73 340 l5 110 -21 -45 c-12 -25 -62 -141
-110 -258 -78 -189 -100 -231 -193 -370 -127 -191 -178 -242 -273 -272 -307
-96 -619 61 -923 467 -247 329 -485 816 -654 1338 -73 227 -129 480 -171 775
-38 274 -39 778 0 1025 8 50 16 113 18 140 18 198 176 803 211 806 8 1 21 2
28 2 35 3 213 -15 292 -29 404 -70 807 -241 998 -422 161 -154 227 -284 321
-635 30 -111 69 -242 86 -292 35 -97 108 -250 116 -242 5 4 -9 184 -21 287
-34 285 -39 615 -12 770 36 211 71 286 346 745 274 457 389 693 458 943 15 53
28 99 30 101 7 10 13 -12 39 -134 20 -99 29 -186 38 -365 l12 -235 32 67 c102
221 158 545 129 761 -4 31 -5 57 -3 57 3 0 33 -42 68 -92z m-9667 -2687 c207
-42 355 -164 431 -352 59 -145 82 -296 82 -534 0 -206 -8 -283 -43 -420 -60
-238 -173 -372 -377 -446 -148 -54 -234 -61 -853 -63 -600 -2 -559 1 -1095
-66 -342 -42 -490 -53 -625 -47 -162 7 -241 32 -304 95 -55 55 -71 101 -71
200 0 235 129 497 365 741 409 422 949 681 1780 850 308 63 541 77 710 42z
m2080 -22 c180 -21 570 -108 820 -184 339 -102 700 -281 962 -476 134 -100
353 -321 432 -437 77 -114 145 -254 172 -358 25 -96 31 -260 10 -317 -49 -139
-182 -166 -511 -103 -69 13 -208 40 -310 60 -391 74 -472 78 -1400 66 -372 -5
-434 -1 -598 41 -98 24 -222 84 -290 139 -70 56 -144 162 -182 261 -47 123
-64 238 -63 439 1 343 66 562 208 706 158 159 373 206 750 163z m-5261 -501
c-4 -7 -33 -50 -65 -94 -332 -472 -497 -989 -414 -1303 38 -145 173 -211 835
-412 146 -45 271 -84 278 -88 9 -5 -9 -16 -50 -31 -90 -32 -229 -104 -325
-166 -173 -112 -273 -252 -273 -382 0 -59 43 -250 87 -387 85 -265 288 -404
735 -501 70 -15 126 -29 124 -31 -2 -2 -52 -17 -112 -33 -185 -49 -284 -92
-299 -128 -40 -96 -9 -193 140 -443 75 -125 134 -246 141 -289 6 -34 6 -34
-20 14 -68 125 -203 270 -541 580 -250 231 -278 252 -498 376 -172 97 -291
190 -359 278 -26 35 -48 67 -48 72 0 5 21 0 46 -11 59 -27 138 -34 194 -19 32
8 59 26 96 64 42 44 55 66 80 141 28 86 29 98 29 265 0 156 -3 186 -27 282
-32 127 -72 220 -117 271 -27 30 -40 37 -70 37 -121 0 -349 94 -516 212 -118
83 -373 336 -466 463 -88 118 -160 239 -199 332 -16 37 -28 69 -26 70 1 1 65
-29 142 -67 291 -147 463 -146 621 2 76 71 133 161 241 379 50 101 114 219
142 261 96 144 228 254 338 284 64 17 166 18 156 2z m8152 -32 c151 -75 274
-230 416 -526 168 -349 286 -467 477 -478 118 -7 234 28 420 128 52 27 96 48
99 46 7 -8 -55 -143 -103 -224 -266 -446 -730 -812 -1080 -849 -66 -8 -70 -10
-101 -50 -74 -97 -130 -299 -141 -503 -9 -188 30 -353 104 -440 79 -92 180
-103 336 -35 29 12 -17 -58 -85 -131 -69 -74 -182 -152 -370 -258 -176 -99
-201 -119 -481 -377 -312 -290 -446 -436 -504 -554 -23 -47 -24 -48 -19 -15 9
49 58 149 164 334 106 184 134 250 136 326 1 73 -20 105 -91 136 -50 22 -241
82 -318 100 -25 5 -7 11 97 34 147 33 340 96 424 138 148 75 250 182 302 320
50 130 111 388 106 452 -9 118 -109 255 -260 357 -77 53 -237 135 -334 172
l-74 28 34 11 c19 6 177 54 350 107 557 171 692 237 741 363 18 45 23 82 25
177 3 132 -4 189 -42 344 -56 226 -178 486 -349 742 l-115 172 80 -5 c66 -4
92 -11 156 -42z m-5041 -1940 c180 -33 298 -87 393 -182 169 -169 217 -461
151 -907 l-11 -73 -81 82 c-152 151 -364 248 -652 300 -129 23 -443 25 -725 4
-259 -19 -810 -20 -975 -2 -274 30 -433 80 -504 157 -26 28 -41 55 -42 72 -13
267 150 428 510 504 185 39 358 51 861 59 646 10 960 6 1075 -14z m3350 3
c339 -17 538 -54 692 -130 149 -74 231 -179 254 -328 9 -63 9 -79 -6 -118 -23
-58 -76 -97 -179 -128 -155 -47 -256 -55 -666 -50 -206 2 -386 6 -400 9 -14 2
-79 7 -145 11 -66 4 -133 9 -150 11 -16 3 -102 7 -190 11 -488 18 -903 -115
-1162 -374 -41 -41 -76 -73 -78 -71 -1 1 -10 57 -19 123 -55 419 -5 686 157
849 106 105 246 163 460 191 119 15 1095 11 1432 -6z m4030 -925 c69 -121 82
-151 72 -164 -10 -13 -10 -13 4 -3 13 11 27 0 90 -70 90 -98 196 -229 226
-277 l21 -35 -33 -230 c-18 -126 -49 -333 -69 -460 -65 -419 -110 -750 -131
-965 -3 -36 -8 -85 -11 -110 -25 -250 -33 -795 -14 -1041 21 -268 67 -587 205
-1419 67 -405 132 -839 168 -1125 29 -223 -31 -561 -136 -770 -81 -164 -228
-322 -405 -438 -57 -38 -123 -89 -148 -115 -102 -106 -218 -320 -367 -677 -74
-175 -179 -389 -198 -400 -5 -4 -9 -15 -9 -25 0 -29 -14 -32 -119 -25 l-99 7
25 62 c14 33 52 117 85 186 33 69 78 177 100 240 120 346 280 627 471 827 l40
41 -58 194 c-119 403 -447 1459 -496 1598 -72 203 -193 502 -354 870 -282 647
-347 845 -348 1065 l-1 110 58 130 c71 159 106 247 237 591 56 148 132 341
170 429 118 279 153 438 169 778 5 116 12 227 16 246 4 20 117 202 271 435
393 597 467 705 476 697 4 -4 46 -75 92 -157z m-12918 21 c80 -107 254 -354
434 -613 174 -251 186 -277 259 -587 28 -121 60 -247 71 -280 11 -33 65 -141
119 -240 237 -435 331 -666 389 -955 30 -155 35 -208 34 -390 -1 -313 -12
-350 -361 -1285 -245 -658 -297 -800 -405 -1125 -81 -244 -135 -376 -335 -832
-193 -438 -312 -749 -312 -816 0 -8 30 -50 66 -93 211 -253 425 -668 527
-1024 37 -128 63 -243 55 -250 -2 -2 -29 -7 -59 -11 l-54 -6 -19 44 c-10 23
-60 142 -111 263 -173 411 -232 532 -319 664 -65 97 -120 149 -237 227 -279
184 -440 418 -508 740 -23 105 -52 353 -46 388 2 12 13 93 25 181 35 268 86
600 195 1265 155 946 188 1183 200 1455 3 72 8 171 10 220 7 114 -10 530 -30
745 -27 290 -57 513 -155 1155 -32 215 -65 436 -73 493 l-14 103 40 57 c22 31
63 84 89 117 73 89 452 483 459 476 3 -3 33 -42 66 -86z m5483 -595 c352 -35
498 -125 563 -349 36 -126 34 -403 -5 -704 l-12 -89 -23 86 c-46 174 -128 313
-251 427 -86 79 -157 123 -270 165 -229 86 -474 93 -857 25 -60 -11 -162 -29
-225 -41 -433 -78 -467 -83 -590 -84 -107 -1 -131 2 -164 19 -51 26 -75 60
-79 110 -2 37 1 41 53 77 103 71 379 203 528 251 163 54 394 103 527 113 50 4
92 8 95 11 9 8 596 -6 710 -17z m2970 -3 c375 -56 748 -203 888 -350 28 -29
34 -42 34 -80 0 -89 -30 -111 -152 -110 -88 1 -142 7 -395 48 -766 123 -1186
106 -1503 -61 -228 -120 -361 -294 -419 -549 -14 -63 -35 156 -36 385 -2 192
1 235 17 295 82 306 294 411 866 431 102 4 186 8 187 9 12 9 429 -6 513 -18z
m-6724 -2081 c121 -35 379 -112 574 -171 885 -265 1188 -345 1700 -445 168
-32 424 -84 570 -116 146 -31 405 -85 575 -120 l310 -64 -160 5 c-372 12 -775
65 -1305 171 -391 79 -801 180 -1745 432 -203 55 -371 98 -373 97 -1 -1 7 -37
19 -81 30 -115 37 -333 15 -444 -15 -72 -50 -193 -70 -240 -5 -13 18 -21 141
-44 316 -61 699 -163 1392 -371 617 -185 853 -248 1206 -320 l210 -44 -85 0
c-306 -2 -996 72 -1445 155 -234 43 -319 64 -660 164 -148 44 -326 93 -395
110 -124 30 -402 80 -444 80 -18 0 -27 -14 -55 -92 -65 -177 -150 -365 -313
-693 -90 -182 -255 -518 -367 -747 -113 -230 -206 -416 -208 -414 -2 1 56 135
128 297 410 920 515 1171 644 1535 31 86 40 125 33 132 -8 8 0 45 26 128 38
124 41 129 59 129 14 0 24 43 26 105 1 59 -19 151 -73 335 -25 82 -47 166 -51
185 -5 28 -74 257 -115 383 -7 20 -6 27 4 27 8 0 112 -29 232 -64z m9564 61
c0 -2 -23 -75 -51 -162 -37 -115 -53 -185 -59 -250 -6 -67 -22 -134 -64 -263
-31 -95 -59 -199 -63 -231 -7 -72 3 -132 21 -125 18 7 97 -245 84 -266 -7 -11
7 -62 50 -180 120 -329 232 -599 533 -1274 115 -258 208 -470 206 -472 -3 -4
-97 185 -552 1111 -114 231 -241 507 -283 613 -67 167 -79 192 -98 192 -12 0
-91 -12 -176 -26 -171 -29 -380 -80 -604 -148 -248 -75 -401 -116 -546 -147
-306 -65 -775 -131 -1123 -159 -71 -6 -146 -12 -165 -15 -19 -2 -120 -6 -225
-9 -205 -6 -205 -6 30 40 294 58 607 142 1300 349 618 186 1000 286 1315 345
63 12 116 23 117 24 1 1 -4 26 -12 56 -23 88 -27 204 -12 390 13 157 14 296 3
307 -2 2 -152 -35 -332 -82 -988 -259 -1450 -367 -1969 -460 -404 -73 -819
-121 -1120 -130 l-180 -6 195 41 c107 22 420 87 695 145 275 57 597 122 715
145 379 73 656 147 1655 445 303 90 579 173 615 183 60 19 100 26 100 19z
m8800 -688 c936 -241 1122 -290 1148 -303 48 -25 109 -100 151 -187 51 -107
99 -270 107 -362 3 -40 21 -202 40 -362 19 -159 34 -297 33 -305 0 -8 -11 36
-24 97 -55 266 -146 494 -267 671 -68 98 -211 242 -309 309 -231 159 -454 232
-969 318 -305 51 -298 49 -311 99 -6 22 -22 62 -35 88 -13 26 -24 49 -24 51 0
2 24 -2 53 -10 28 -7 212 -54 407 -104z m-27104 -117 c-13 -26 -29 -66 -35
-89 l-11 -42 -73 -15 c-39 -9 -166 -32 -282 -51 -356 -60 -530 -108 -721 -200
-62 -29 -139 -71 -172 -94 -305 -207 -502 -534 -596 -988 -31 -151 -32 -127
-1 127 25 202 39 332 49 440 17 183 123 433 219 517 45 39 33 36 747 219 316
81 640 164 720 185 193 50 186 50 156 -9z m25055 -1061 c-17 -33 -87 -183
-155 -333 -618 -1362 -1024 -2558 -1357 -3998 -28 -124 -55 -228 -58 -233 -4
-4 -33 -2 -64 4 -40 8 -57 16 -57 28 0 23 148 532 267 916 334 1083 692 2055
1071 2905 83 186 261 560 324 680 57 106 79 132 29 31z m-23266 -511 c504
-1053 975 -2331 1419 -3854 53 -180 96 -336 96 -345 0 -12 -15 -20 -57 -29
-31 -6 -60 -8 -64 -4 -4 4 -19 61 -34 127 -296 1306 -656 2425 -1159 3599
-112 261 -327 739 -382 848 -19 37 -34 71 -34 75 1 14 110 -199 215 -417z
m25277 170 c296 -59 538 -128 993 -283 176 -60 369 -125 428 -145 l108 -37 -5
-115 c-3 -63 -8 -182 -11 -265 -3 -82 -8 -172 -10 -200 -2 -27 -7 -88 -10
-135 -24 -348 -65 -735 -126 -1200 -34 -262 -44 -329 -51 -335 -3 -3 -106 50
-229 117 -309 167 -589 302 -815 392 -104 42 -196 76 -202 76 -7 0 -12 -11
-12 -24 0 -64 -104 -632 -176 -966 -330 -1516 -1028 -3579 -1886 -5570 -94
-217 -202 -474 -240 -570 -38 -96 -105 -267 -150 -380 -174 -440 -370 -884
-563 -1275 -116 -234 -266 -519 -285 -539 -5 -5 51 110 124 255 408 811 806
1835 1334 3429 226 682 540 1672 707 2230 236 790 444 1660 590 2475 19 110
56 301 80 425 160 813 243 1537 230 2000 -6 201 -7 236 -6 463 1 174 3 207 15
207 8 0 84 -14 168 -30z m2318 -144 c294 -75 549 -143 567 -151 17 -7 43 -29
57 -47 71 -94 194 -417 284 -748 53 -196 59 -233 19 -125 -83 224 -193 409
-323 545 -101 105 -186 169 -307 230 -137 69 -280 111 -577 170 -140 28 -258
54 -261 58 -4 4 -11 54 -15 111 -6 87 -4 103 7 99 8 -3 255 -67 549 -142z
m-29601 -523 c-1 -410 2 -560 15 -718 34 -400 115 -958 211 -1438 24 -122 60
-312 80 -422 173 -960 386 -1822 701 -2840 833 -2687 1394 -4226 1935 -5307
91 -181 111 -233 44 -111 -255 462 -555 1122 -830 1828 -108 276 -148 374
-337 815 -1028 2394 -1781 4744 -2029 6330 -17 113 -35 209 -39 213 -12 13
-368 -132 -586 -237 -105 -51 -295 -150 -423 -221 -165 -89 -236 -124 -241
-115 -4 7 -10 35 -14 64 -3 28 -17 132 -31 231 -70 510 -135 1186 -150 1580
-3 77 -8 192 -11 255 l-5 115 123 42 c68 22 256 86 418 142 346 118 605 195
820 245 151 35 297 63 333 65 17 1 17 -27 16 -516z m-1943 385 c-4 -57 -10
-106 -14 -109 -10 -9 -125 -35 -253 -59 -175 -31 -337 -70 -428 -102 -369
-129 -629 -407 -787 -843 -18 -49 -33 -85 -34 -79 -1 24 103 388 156 544 89
265 173 427 237 455 18 8 203 58 412 111 209 53 454 116 545 140 91 23 167 43
169 43 2 1 1 -45 -3 -101z m31584 -1352 c617 -172 934 -256 970 -256 l23 0 -6
-312 c-7 -337 -24 -655 -52 -968 -27 -297 -124 -1083 -140 -1127 -4 -13 -74
18 -683 306 -508 240 -693 323 -709 317 -7 -3 -13 -16 -13 -28 0 -46 -91 -472
-154 -719 -320 -1262 -1098 -3556 -1776 -5244 -176 -437 -444 -1044 -456
-1032 -2 2 37 99 87 217 770 1832 1523 4439 1933 6690 115 631 225 1345 261
1695 3 33 10 94 15 135 10 81 50 474 50 496 0 11 9 10 48 -1 26 -8 297 -84
602 -169z m-31526 -58 c3 -32 8 -82 11 -110 199 -2135 861 -5024 1702 -7433
185 -530 455 -1233 596 -1552 25 -57 43 -103 40 -103 -8 0 -158 317 -243 515
-632 1465 -1572 4166 -1960 5632 -84 320 -190 797 -190 860 0 53 33 67 -814
-331 -323 -153 -589 -276 -590 -274 -2 3 -42 277 -66 463 -42 309 -94 860
-105 1105 -3 69 -8 137 -10 152 -2 15 -7 178 -11 363 l-7 335 24 0 c44 0 396
95 1334 358 154 43 281 78 281 78 1 -1 5 -27 8 -58z m33020 -308 c127 -32 344
-88 483 -124 138 -36 265 -72 282 -81 126 -65 307 -485 405 -940 31 -143 67
-347 63 -351 -2 -2 -18 49 -36 114 -80 281 -199 566 -298 715 -92 139 -236
268 -378 340 -135 67 -352 127 -625 172 -52 8 -110 18 -127 21 l-33 5 0 94 c0
81 2 95 16 95 9 0 121 -27 248 -60z m-34904 -214 l0 -94 -27 -6 c-16 -3 -86
-15 -158 -26 -153 -25 -298 -58 -413 -95 -433 -137 -653 -420 -852 -1095 -64
-216 -64 -207 -4 100 94 478 243 871 384 1010 l45 45 490 127 c270 69 500 127
513 127 21 1 22 -2 22 -93z m34791 -1240 c118 -41 448 -157 734 -259 286 -102
546 -193 578 -203 l57 -18 -5 -85 c-2 -47 -7 -176 -10 -286 -5 -187 -18 -479
-30 -675 -13 -229 -37 -561 -43 -606 l-7 -51 -260 79 c-528 160 -1047 341
-1216 423 l-67 32 -96 -381 c-458 -1821 -805 -2917 -1231 -3881 -78 -175 -255
-539 -260 -533 -2 2 31 94 74 203 120 305 247 654 380 1046 66 195 159 467
206 604 169 491 291 901 425 1436 186 744 271 1169 319 1601 11 97 36 268 55
380 50 284 91 559 120 793 24 196 29 237 42 383 4 39 10 72 14 72 4 0 104 -33
221 -74z m-16368 -110 c23 -3 186 -8 361 -12 176 -3 327 -7 335 -9 24 -4 496
-14 961 -20 605 -7 1055 -19 1545 -40 61 -3 169 -7 240 -10 72 -3 166 -8 210
-10 44 -3 159 -9 255 -15 187 -11 207 -12 515 -35 304 -23 510 -43 735 -74
l205 -27 -2 -30 c0 -16 -10 -90 -21 -164 -11 -74 -28 -214 -37 -310 -9 -96
-19 -195 -23 -220 -7 -45 -8 -45 -47 -45 -59 1 -329 17 -335 20 -3 1 -70 6
-150 10 -80 4 -158 8 -175 10 -16 2 -84 6 -150 9 -66 4 -145 9 -175 11 -54 5
-480 29 -690 40 -58 3 -145 7 -195 10 -49 2 -139 7 -200 10 -60 3 -148 7 -195
10 -47 3 -204 9 -350 15 -146 5 -310 12 -365 15 -566 27 -2544 27 -2833 0 -18
-1 -111 -6 -208 -10 -96 -4 -174 -9 -172 -10 5 -5 92 -13 213 -20 61 -3 126
-8 145 -10 19 -3 80 -7 135 -10 55 -3 116 -8 135 -10 19 -2 118 -7 220 -10
509 -14 604 -18 1005 -35 278 -12 422 -19 535 -25 120 -6 246 -13 460 -25 102
-5 226 -12 275 -15 118 -7 219 -13 335 -20 52 -3 160 -10 240 -15 132 -9 490
-32 715 -45 50 -3 119 -8 155 -11 170 -12 201 -14 290 -19 52 -3 120 -8 150
-10 30 -3 190 -14 355 -25 165 -11 323 -22 350 -24 28 -3 133 -10 235 -17 102
-7 186 -13 188 -15 2 -1 -11 -41 -30 -88 l-33 -86 -35 5 c-19 3 -82 12 -140
20 -467 61 -379 52 -1000 104 -465 39 -901 71 -1190 86 -63 3 -137 8 -165 10
-27 2 -104 6 -170 10 -66 3 -156 8 -200 10 -44 2 -141 7 -215 10 -74 3 -178 7
-230 10 -52 2 -185 7 -295 10 -110 3 -238 8 -285 10 -614 30 -2790 24 -3485
-10 -49 -2 -155 -7 -235 -10 -189 -8 -699 -34 -770 -39 -30 -3 -104 -8 -165
-11 -190 -10 -676 -46 -765 -55 -47 -5 -263 -26 -480 -45 -217 -19 -460 -42
-540 -50 -80 -8 -167 -17 -195 -20 -305 -30 -996 -108 -1150 -130 -60 -8 -193
-27 -295 -40 -102 -14 -241 -32 -309 -41 -118 -16 -125 -16 -137 1 -17 23 -65
165 -56 165 4 0 88 11 187 25 188 27 829 103 1095 130 85 9 175 18 200 21 112
11 456 45 560 54 63 6 138 12 165 15 91 9 497 44 685 60 102 8 205 17 230 20
25 2 83 7 130 10 47 3 101 8 120 10 19 2 78 7 130 10 52 3 115 8 140 10 57 6
147 12 335 25 83 6 177 13 210 15 33 3 132 9 220 15 88 6 185 12 215 15 30 2
100 7 155 10 55 3 129 8 165 10 36 3 110 7 165 10 55 3 134 8 175 10 151 10
237 15 350 20 498 24 765 52 540 55 -52 1 -111 3 -130 5 -199 18 -869 27
-1150 15 -124 -5 -288 -12 -365 -15 -133 -5 -236 -10 -425 -20 -47 -3 -130 -7
-185 -10 -55 -3 -134 -7 -175 -10 -80 -5 -185 -11 -340 -20 -52 -3 -160 -10
-240 -16 -80 -5 -179 -12 -220 -14 -109 -8 -475 -34 -545 -40 -33 -3 -125 -10
-205 -15 -134 -10 -808 -65 -924 -75 -44 -4 -223 -20 -451 -40 -223 -20 -807
-76 -837 -81 -33 -5 -38 -3 -43 18 -27 118 -47 235 -60 353 -8 77 -25 196 -36
264 -11 68 -17 127 -12 131 13 12 692 98 1298 164 441 48 953 97 1315 126 74
6 162 13 195 15 173 14 653 46 895 60 151 8 311 17 355 20 44 2 143 7 220 10
77 3 169 8 205 10 36 2 162 7 280 10 118 3 245 8 281 10 36 2 250 7 475 11
225 3 411 8 412 10 6 5 1592 -5 1635 -10z m-18334 -128 c7 -73 15 -141 16
-152 2 -12 11 -82 20 -156 22 -194 59 -443 115 -775 27 -159 51 -319 55 -355
41 -423 133 -893 327 -1665 156 -624 253 -936 616 -1995 171 -501 269 -770
393 -1085 43 -109 76 -201 74 -203 -5 -5 -186 366 -260 533 -424 958 -774
2060 -1231 3882 l-96 382 -52 -29 c-81 -45 -248 -111 -561 -218 -365 -126
-512 -179 -691 -252 l-143 -57 -30 131 c-17 74 -39 220 -51 336 -12 113 -23
219 -25 235 -2 17 -6 59 -10 95 -3 36 -8 83 -10 105 -3 22 -14 139 -24 260
-19 204 -25 291 -36 485 l-4 75 137 47 c75 25 371 129 657 231 728 258 779
276 791 276 7 1 16 -49 23 -131z m26926 -683 c436 -91 1072 -236 1540 -353
l110 -27 7 -45 c4 -25 5 -124 4 -220 -3 -159 -5 -183 -31 -265 -15 -49 -28
-91 -30 -92 -1 -2 -138 29 -306 68 -574 133 -1067 236 -1359 284 -58 10 -108
21 -113 25 -4 3 -24 107 -44 231 -20 123 -40 225 -44 227 -4 2 -6 9 -3 15 2 7
1 56 -4 110 -4 53 -4 97 0 97 5 0 128 -25 273 -55z m-19110 -137 c-2 -7 -6
-51 -9 -98 -6 -96 -82 -560 -93 -570 -5 -4 -102 -24 -218 -44 -304 -55 -682
-134 -1149 -242 -225 -51 -411 -93 -412 -91 -1 1 -14 43 -29 92 -23 75 -28
114 -32 240 -2 83 -1 181 4 219 l8 70 130 33 c453 114 1718 399 1787 402 10 1
16 -5 13 -11z m28710 -230 c99 -27 237 -65 307 -84 159 -42 218 -71 289 -144
130 -133 217 -389 248 -730 24 -274 -9 -788 -75 -1170 -50 -283 -182 -875
-205 -911 -10 -17 -81 -1 -269 61 -117 39 -610 215 -721 258 -25 10 -27 8 -59
-71 -281 -695 -672 -1510 -904 -1885 -32 -51 -59 -92 -62 -92 -2 0 8 24 22 53
129 253 278 597 414 957 26 69 75 196 109 283 235 609 420 1362 471 1922 7 66
15 139 18 161 l7 41 95 -46 c52 -26 232 -112 400 -191 168 -79 393 -185 500
-237 l195 -93 7 28 c23 90 30 487 13 675 -42 445 -84 608 -199 765 -73 99
-174 164 -307 197 -35 9 -92 25 -125 36 -36 12 -111 24 -180 29 -104 7 -144
13 -241 35 -14 3 -20 11 -18 22 5 24 14 130 15 170 l0 31 38 -10 c20 -5 118
-32 217 -60z m-38329 -220 c7 -74 6 -105 -2 -110 -18 -12 -180 -36 -274 -42
-47 -2 -107 -12 -135 -22 -27 -9 -84 -25 -125 -35 -291 -70 -433 -266 -495
-683 -26 -174 -43 -458 -39 -636 4 -154 18 -337 27 -346 2 -2 80 32 173 77 93
45 322 153 509 241 187 88 379 180 428 204 84 43 87 44 88 22 0 -13 2 -30 3
-38 2 -8 6 -53 10 -100 41 -509 222 -1284 434 -1855 202 -542 363 -932 511
-1239 49 -102 88 -186 86 -186 -2 0 -12 15 -23 33 -10 17 -38 63 -62 101 -211
344 -563 1073 -835 1731 -46 110 -88 201 -93 203 -5 1 -142 -45 -303 -104
-358 -130 -600 -210 -661 -219 l-46 -7 -16 56 c-68 232 -163 689 -211 1008
-52 349 -75 784 -54 1028 32 367 135 644 282 764 67 54 114 73 329 131 112 30
257 70 323 89 175 49 161 55 171 -66z m28817 -489 c228 -54 347 -85 607 -156
268 -73 764 -214 768 -218 8 -8 -60 -95 -74 -95 -9 0 -128 27 -266 60 -457
110 -952 221 -965 216 -21 -8 -187 25 -195 39 -4 7 -25 16 -45 19 -79 14 -75
9 -69 99 2 45 5 83 5 85 2 6 35 -1 234 -49z m-19328 -210 c5 -55 4 -84 -4 -88
-5 -4 -79 -22 -163 -40 -312 -68 -909 -204 -1126 -257 -124 -29 -233 -54 -242
-54 -16 0 -80 73 -80 90 0 12 782 230 1180 329 151 38 302 76 335 84 97 24 92
28 100 -64z m19265 -197 c71 -16 75 -18 72 -42 -5 -32 -124 -581 -197 -905
-31 -137 -76 -369 -100 -515 -59 -358 -119 -695 -220 -1230 -56 -296 -206
-1160 -244 -1400 -48 -301 -63 -412 -96 -700 -13 -118 -26 -231 -28 -250 -7
-63 -4 451 4 590 13 238 20 344 24 400 42 474 54 598 101 965 105 839 275
1795 495 2780 38 170 69 313 69 317 0 11 35 8 120 -10z m-19293 -298 c214
-929 405 -1967 513 -2779 12 -88 23 -171 25 -185 21 -130 85 -775 105 -1055 6
-82 12 -175 15 -205 6 -79 15 -741 9 -705 -2 17 -13 113 -24 215 -51 463 -162
1159 -341 2115 -94 507 -145 791 -204 1135 -36 212 -95 518 -131 680 -95 429
-193 884 -190 887 5 5 172 41 181 39 6 -2 24 -65 42 -142z m20038 -5344 c-9
-16 -18 -30 -21 -30 -2 0 2 14 11 30 9 17 18 30 21 30 2 0 -2 -13 -11 -30z
m-20955 -120 c11 -22 18 -40 15 -40 -2 0 -14 18 -25 40 -11 22 -18 40 -15 40
2 0 14 -18 25 -40z"/>
<path d="M22158 41070 c-130 -16 -157 -29 -102 -50 81 -31 684 -38 819 -10 48
10 74 24 64 35 -26 25 -625 45 -781 25z"/>
<path d="M21396 40820 c-33 -5 -93 -19 -134 -30 -79 -22 -269 -97 -277 -110
-3 -4 30 3 73 16 166 52 340 71 493 54 180 -20 287 -50 529 -150 298 -123 359
-128 556 -40 176 78 263 107 398 136 304 64 757 32 959 -67 41 -20 42 -20 17
0 -73 59 -252 125 -441 163 -95 19 -147 23 -309 23 -274 0 -376 -21 -635 -133
-123 -53 -134 -56 -210 -56 -66 1 -98 7 -180 36 -55 20 -153 55 -218 78 -65
23 -160 51 -210 61 -106 23 -324 32 -411 19z"/>
<path d="M20874 40190 c-71 -10 -152 -38 -197 -68 -74 -49 -203 -253 -241
-381 -9 -30 -16 -57 -16 -59 0 -2 20 22 43 55 24 32 64 74 88 93 24 19 47 40
51 46 16 24 116 84 173 102 33 11 85 22 115 25 30 3 71 10 90 16 217 60 516
-25 850 -243 163 -107 188 -121 233 -136 86 -27 117 12 117 147 -1 111 -11
156 -47 201 -83 102 -265 147 -718 177 -49 3 -144 13 -210 21 -126 15 -246 16
-331 4z"/>
<path d="M23740 40185 c-52 -7 -171 -18 -265 -25 -344 -23 -517 -60 -622 -131
-57 -40 -82 -85 -89 -161 -11 -119 28 -188 107 -188 75 0 169 45 365 173 129
85 210 108 559 158 248 35 436 17 558 -54 41 -25 102 -84 140 -137 27 -39 -31
78 -70 140 -48 76 -129 157 -185 186 -103 52 -291 67 -498 39z"/>
<path d="M23488 39550 c-245 -39 -450 -159 -523 -307 -23 -47 -28 -71 -28
-128 1 -84 16 -125 82 -214 74 -100 148 -148 313 -201 160 -52 300 -91 306
-86 3 3 -1 6 -9 6 -21 0 -283 130 -357 177 -60 38 -112 93 -112 119 0 9 17 5
53 -11 85 -39 171 -49 372 -42 206 7 384 29 459 57 28 11 91 42 140 70 49 27
95 50 102 50 45 0 -7 52 -134 134 -289 188 -688 206 -1127 52 -11 -4 0 11 25
33 193 175 636 220 977 100 47 -17 87 -28 90 -25 3 3 -21 32 -54 63 -63 63
-152 111 -250 138 -71 19 -247 27 -325 15z m-54 -428 c21 -63 42 -91 80 -108
30 -13 29 -13 -36 -14 -111 0 -258 35 -326 78 -18 12 -20 17 -10 29 24 29 140
60 230 62 l46 1 16 -48z m501 29 c39 -11 97 -32 130 -46 56 -25 58 -28 40 -41
-58 -43 -245 -87 -351 -82 l-69 3 37 19 c53 26 97 79 104 126 8 47 12 48 109
21z"/>
<path d="M21271 39535 c-100 -23 -159 -44 -251 -91 -79 -41 -200 -126 -155
-110 84 31 171 57 235 70 303 60 653 -1 810 -142 l45 -41 -91 29 c-188 60
-282 74 -484 74 -168 -1 -194 -3 -284 -27 -55 -15 -140 -47 -190 -71 -84 -41
-204 -122 -234 -158 -13 -16 -11 -17 187 -119 119 -61 289 -84 611 -84 180 0
243 11 308 52 34 21 38 10 12 -33 -14 -21 -54 -57 -99 -86 -72 -48 -255 -141
-337 -173 -65 -25 5 -9 156 37 272 81 332 113 420 220 79 94 95 135 95 243 0
79 -4 97 -29 148 -54 111 -168 199 -321 247 -91 29 -307 37 -404 15z m409
-345 c61 -12 141 -49 148 -68 9 -27 -198 -92 -292 -92 l-51 0 32 25 c43 34 73
85 73 124 0 26 3 31 18 27 9 -2 42 -10 72 -16z m-516 -32 c5 -31 17 -52 47
-80 22 -21 47 -38 55 -38 9 0 12 -5 8 -11 -17 -28 -276 10 -379 56 l-50 22 25
13 c21 12 242 75 276 79 6 0 14 -18 18 -41z"/>
<path d="M20320 39442 c0 -7 14 -146 30 -310 30 -301 56 -472 70 -472 4 0 8
32 9 72 3 151 35 273 78 296 15 9 14 13 -13 44 -40 46 -98 163 -139 283 -19
55 -34 94 -35 87z"/>
<path d="M24700 39438 c0 -33 -93 -213 -153 -297 l-68 -94 30 -13 c59 -25 89
-115 92 -282 4 -212 45 -14 84 413 8 94 18 196 21 228 3 31 3 57 0 57 -3 0 -6
-6 -6 -12z"/>
<path d="M21978 38233 c-122 -132 -244 -325 -388 -618 -88 -179 -185 -395
-176 -395 2 0 21 24 43 53 22 28 95 113 163 187 67 74 149 171 182 215 33 44
62 82 64 84 2 2 15 -11 31 -29 l27 -33 75 7 c71 5 81 4 161 -30 129 -54 154
-60 184 -44 41 21 63 113 41 167 -34 81 -203 98 -329 34 l-60 -32 -30 31 c-27
26 -31 38 -34 98 -4 70 6 111 72 285 14 37 24 67 22 67 -2 0 -23 -21 -48 -47z"/>
<path d="M23020 38279 c0 -4 7 -26 16 -50 60 -166 78 -311 48 -375 -27 -56
-42 -58 -122 -17 -157 80 -322 46 -322 -67 0 -42 18 -101 34 -112 20 -14 93
-9 107 8 36 43 81 51 230 39 l95 -7 29 33 28 34 16 -25 c33 -50 131 -169 241
-290 62 -69 131 -149 153 -177 22 -29 41 -53 43 -53 10 0 -110 272 -196 445
-108 219 -170 326 -255 443 -57 80 -144 182 -145 171z"/>
<path d="M24345 38208 c-20 -40 -73 -133 -117 -206 -102 -170 -164 -301 -184
-390 -16 -70 -15 -72 11 -179 24 -94 126 -378 142 -393 5 -5 -1 88 -14 195 -3
28 -5 111 -5 185 1 162 14 220 101 442 33 85 69 188 80 229 19 72 37 189 28
189 -2 0 -21 -33 -42 -72z"/>
<path d="M20617 38218 c7 -89 32 -175 105 -362 96 -247 102 -278 94 -511 -4
-104 -9 -217 -12 -250 l-5 -60 21 45 c40 85 112 295 131 382 15 70 17 97 9
134 -17 75 -66 193 -119 284 -27 47 -87 152 -134 233 -46 82 -87 150 -90 153
-3 3 -3 -19 0 -48z"/>
<path d="M19777 38122 c-78 -86 -88 -291 -22 -449 l16 -37 29 50 c45 80 117
132 166 120 25 -7 54 -61 54 -103 0 -24 -9 -35 -52 -63 -61 -41 -86 -73 -98
-124 -13 -60 5 -104 70 -168 l58 -57 -24 -22 c-14 -13 -36 -47 -51 -77 -38
-79 -37 -160 5 -244 33 -68 113 -160 120 -139 2 7 -1 18 -7 24 -7 7 -7 15 2
25 8 10 14 73 18 181 5 130 12 189 33 273 37 151 35 224 -8 353 -39 115 -99
240 -159 330 -39 59 -115 145 -128 145 -3 0 -13 -8 -22 -18z"/>
<path d="M25181 38095 c-56 -61 -125 -169 -173 -272 -101 -216 -118 -328 -73
-503 22 -84 28 -139 33 -276 5 -111 11 -176 19 -186 9 -10 9 -18 2 -25 -6 -6
-9 -17 -7 -25 4 -9 17 0 43 26 86 91 126 200 106 292 -12 51 -53 127 -83 152
-14 11 -9 20 42 70 112 110 99 219 -37 299 l-45 26 6 46 c8 61 42 96 83 87 43
-10 99 -60 133 -119 l29 -51 16 37 c41 98 58 243 39 323 -14 57 -65 144 -84
144 -4 0 -26 -20 -49 -45z"/>
<path d="M22055 37204 c-81 -21 -125 -43 -197 -100 -45 -36 -94 -72 -108 -79
-40 -21 -150 -36 -204 -29 -57 8 -58 -1 -6 -54 55 -57 112 -84 190 -90 57 -4
76 0 144 27 109 44 172 50 561 55 187 3 390 8 452 12 123 8 203 -3 272 -37 96
-46 211 -19 316 75 57 50 63 43 -60 67 -33 6 -141 40 -240 76 -287 103 -314
104 -518 13 -148 -65 -163 -65 -327 5 -127 55 -216 74 -275 59z"/>
<path d="M21296 37087 c-138 -247 -148 -463 -30 -658 32 -54 171 -196 212
-218 17 -9 14 1 -17 58 -51 92 -106 221 -127 301 -22 77 -24 327 -5 479 6 51
10 96 7 98 -2 3 -20 -25 -40 -60z"/>
<path d="M23695 37105 c30 -268 29 -456 -4 -558 -30 -94 -84 -217 -126 -288
l-35 -60 31 18 c50 29 156 138 200 205 60 93 84 182 83 303 -1 80 -6 116 -28
178 -27 81 -83 197 -110 232 -15 19 -16 17 -11 -30z"/>
<path d="M21740 36717 c0 -104 74 -214 181 -268 141 -71 375 -93 754 -70 300
18 407 52 509 162 46 50 106 162 106 198 0 5 -28 -10 -62 -33 -105 -70 -218
-96 -498 -117 -173 -12 -439 -7 -590 11 -154 19 -284 64 -367 127 l-33 24 0
-34z"/>
<path d="M22580 35623 c-61 -10 -136 -41 -285 -118 -108 -56 -181 -87 -223
-95 -35 -7 -61 -15 -58 -17 3 -3 53 -18 113 -34 181 -49 268 -38 336 42 43 50
81 69 139 69 41 0 55 -7 119 -55 40 -30 87 -59 105 -64 60 -16 271 32 379 87
43 21 47 26 30 33 -11 4 -42 8 -70 8 -77 2 -168 27 -289 80 -136 60 -216 77
-296 64z"/>
<path d="M20232 32065 c-128 -254 -225 -311 -547 -322 -227 -8 -327 4 -770 92
-315 63 -569 69 -1040 24 -257 -24 -728 -36 -859 -21 -81 9 -94 14 -156 56
-37 26 -89 69 -114 96 -25 27 -46 48 -46 47 0 -1 7 -40 15 -87 9 -47 19 -153
22 -235 l6 -150 -129 -117 c-71 -64 -161 -149 -200 -189 -197 -206 -382 -532
-556 -984 -50 -129 -108 -294 -108 -304 0 -3 30 50 66 118 184 351 378 624
618 870 440 450 949 695 1586 765 346 38 708 11 1205 -89 338 -68 414 -78 580
-79 247 -1 366 46 415 163 7 17 10 34 7 37 -3 3 -37 -11 -76 -30 -39 -20 -73
-36 -77 -36 -4 0 11 19 33 43 67 73 121 150 154 222 27 56 34 85 37 152 3 46
3 83 1 83 -2 0 -32 -56 -67 -125z"/>
<path d="M24730 32124 c1 -117 47 -215 167 -359 35 -41 61 -75 58 -75 -3 0
-37 16 -76 36 -39 19 -73 33 -76 31 -6 -7 25 -79 45 -100 9 -11 36 -30 59 -44
140 -82 398 -81 801 3 426 89 626 115 937 119 474 8 856 -70 1230 -250 547
-263 1018 -757 1351 -1417 32 -64 60 -115 61 -114 5 4 -97 283 -157 431 -69
170 -183 404 -259 532 -102 171 -200 291 -358 440 -81 76 -165 155 -187 176
l-39 38 7 147 c3 81 13 183 21 227 8 44 15 83 15 87 0 4 -21 -15 -46 -42 -25
-27 -77 -70 -114 -96 -60 -41 -77 -47 -146 -55 -85 -10 -490 -14 -564 -5 -25
3 -76 8 -115 11 -38 3 -146 12 -240 20 -420 37 -689 30 -965 -25 -459 -91
-573 -105 -794 -97 -322 12 -422 70 -547 321 -33 66 -63 123 -65 125 -2 2 -4
-27 -4 -65z"/>
<path d="M22845 31837 c-190 -72 -527 -78 -697 -12 -15 6 -18 2 -18 -21 1 -37
40 -134 75 -184 66 -95 209 -152 331 -132 79 13 176 57 229 103 49 43 108 134
124 192 20 70 15 76 -44 54z"/>
<path d="M13536 16145 c4 -11 34 -90 66 -175 182 -476 332 -1129 399 -1730 18
-160 21 -262 24 -750 2 -450 0 -587 -12 -675 -12 -93 -45 -254 -68 -330 -18
-61 63 128 96 225 70 201 118 427 138 645 12 125 6 742 -8 890 -44 453 -228
1059 -496 1635 -63 136 -160 320 -139 265z"/>
<path d="M14391 14215 c-1 -11 26 -229 34 -273 5 -32 24 -242 28 -317 6 -106
-11 -376 -32 -510 -11 -71 -22 -152 -25 -180 -3 -27 -15 -124 -27 -215 -25
-185 -32 -521 -13 -553 10 -17 14 -14 41 30 64 101 112 287 139 537 15 138 21
565 10 671 -2 28 -8 86 -11 130 -15 188 -47 364 -102 550 -42 146 -41 143 -42
130z"/>
<path d="M14923 13585 c-6 -66 -27 -190 -45 -275 -31 -149 -33 -164 -32 -375
0 -235 9 -308 60 -489 28 -100 115 -326 124 -326 46 0 59 434 24 785 -8 83
-37 285 -64 450 -27 165 -50 311 -52 325 -2 14 -9 -29 -15 -95z"/>
<path d="M31383 26990 c0 -30 2 -43 4 -27 2 15 2 39 0 55 -2 15 -4 2 -4 -28z"/>
<path d="M31377 16168 c-276 -563 -477 -1179 -537 -1650 -31 -246 -35 -883 -7
-1093 24 -176 60 -334 112 -490 42 -127 105 -288 111 -283 1 2 -6 35 -17 73
-11 39 -29 124 -41 190 -21 114 -22 149 -22 690 -1 470 2 601 16 745 50 501
148 991 297 1480 48 159 146 432 171 479 6 13 10 25 7 27 -3 3 -43 -73 -90
-168z"/>
<path d="M30581 14317 c-99 -341 -132 -595 -133 -1007 0 -442 56 -780 154
-930 28 -43 34 -47 43 -32 15 25 15 290 0 427 -16 146 -40 334 -65 515 -11 74
-22 155 -25 180 -10 80 -7 412 4 510 6 52 21 166 32 254 11 87 19 160 17 161
-2 2 -14 -33 -27 -78z"/>
<path d="M30061 13861 c0 -13 -21 -144 -46 -290 -56 -337 -74 -482 -85 -701
-14 -277 6 -570 40 -570 9 0 96 226 124 326 42 145 57 258 63 454 4 158 2 201
-16 295 -41 225 -60 342 -69 425 -5 47 -10 74 -11 61z"/>
</g>
</svg>
